<svg version="1" xmlns="http://www.w3.org/2000/svg" width="682.667" height="682.667" viewBox="0 0 512.000000 512.000000"><path d="M237.5.6c-48.4 3.8-96.7 21.7-134 49.7-56 42.1-90.3 100-101.1 170.7-2.5 16.1-2.5 53.9-.1 70 4.4 28.7 12.1 53.7 24.2 78.5 12.6 25.8 26.8 45.8 46.5 65.6 43 43.2 95.7 69.1 154.9 75.9 15.5 1.8 57.4.7 71.1-1.8 42.1-7.9 78.6-23.8 112.6-49.3 12.7-9.5 38.8-35.6 48.3-48.3 25.5-34 41.4-70.5 49.3-112.6 2.5-13.7 3.6-55.6 1.8-71.1-5.6-48.9-24.4-93.7-55.8-132.9-9.4-11.7-28-30.5-38.7-39C381.2 28 338 9.5 292 2.5 281.9 1 247.7-.2 237.5.6zm179.1 131.1l.2 28.3H383v-16H131v16H97v-57l159.8.2 159.7.3.1 28.2zm-152.1 30.2c10.9 4.8 17.5 14.7 18.3 27.1.5 9.9-2.1 17.1-8.6 23.8-5.4 5.5-10.2 8-17.5 9.2-25.2 4-44.2-22.3-32.7-45.6 7.4-15 25-21.4 40.5-14.5zM278 325.5V410h30v33H205v-33h32V274h-32v-33h73v84.5z"/></svg>